<svg xmlns="http://www.w3.org/2000/svg" xmlns:xlink="http://www.w3.org/1999/xlink" width="500" zoomAndPan="magnify" viewBox="0 0 375 374.999991" height="500" preserveAspectRatio="xMidYMid meet" version="1.0"><defs><clipPath id="edc271b563"><path d="M 95.601562 31.113281 L 281.539062 31.113281 L 281.539062 265 L 95.601562 265 Z M 95.601562 31.113281 " clip-rule="nonzero"/></clipPath><clipPath id="b02e210391"><path d="M 176 264 L 200 264 L 200 335.375 L 176 335.375 Z M 176 264 " clip-rule="nonzero"/></clipPath></defs><g clip-path="url(#edc271b563)"><path fill="#4ea8de" d="M 188.753906 55.90625 C 215.167969 89.441406 229.269531 130.796875 228.757812 173.234375 L 228.757812 183.367188 L 237.476562 188.671875 C 248.734375 195.488281 257.136719 206.058594 261.140625 218.464844 C 257.621094 215.875 253.945312 213.507812 250.125 211.371094 L 226.882812 198.324219 L 222.703125 224.660156 C 222.34375 226.988281 221.859375 229.296875 221.253906 231.574219 L 156.128906 231.574219 C 155.15625 228.597656 154.371094 225.617188 153.644531 222.515625 L 148.378906 198.679688 L 126.957031 210.597656 C 123.375 212.597656 119.917969 214.808594 116.605469 217.210938 C 120.6875 204.949219 128.910156 194.4375 139.90625 187.417969 L 148.199219 182.117188 L 148.199219 172.703125 C 148.347656 130.433594 162.621094 89.390625 188.8125 55.90625 Z M 188.8125 31.113281 C 187.453125 31.117188 186.144531 31.605469 185.121094 32.484375 L 184.574219 32.964844 C 149.671875 71.390625 130.292969 121.085938 130.101562 172.640625 C 115.289062 182.097656 104.328125 196.382812 99.128906 212.996094 C 93.929688 229.605469 94.824219 247.488281 101.652344 263.511719 C 108.851562 247.863281 120.882812 234.851562 136.035156 226.328125 C 137.554688 232.808594 139.574219 239.164062 142.085938 245.335938 C 142.402344 246.527344 143.109375 247.578125 144.09375 248.332031 C 145.078125 249.082031 146.285156 249.496094 147.53125 249.507812 L 231.546875 249.507812 C 233.238281 249.507812 234.933594 247.898438 235.78125 245.398438 C 238.230469 239.527344 239.9375 233.382812 240.867188 227.101562 C 256.046875 235.589844 268.082031 248.613281 275.242188 264.285156 C 282.488281 248.339844 283.609375 230.347656 278.398438 213.644531 C 273.191406 196.941406 262.003906 182.671875 246.917969 173.472656 C 247.515625 121.617188 228.238281 71.445312 192.925781 32.964844 C 192.402344 32.382812 191.757812 31.917969 191.039062 31.605469 C 190.320312 31.285156 189.542969 31.117188 188.753906 31.113281 Z M 188.8125 31.113281 " fill-opacity="1" fill-rule="nonzero"/></g><path fill="#4ea8de" d="M 188.753906 167.691406 C 184.101562 167.691406 179.558594 166.339844 175.691406 163.796875 C 171.824219 161.257812 168.804688 157.648438 167.019531 153.425781 C 165.230469 149.199219 164.753906 144.550781 165.648438 140.058594 C 166.542969 135.566406 168.765625 131.4375 172.039062 128.1875 C 175.316406 124.933594 179.492188 122.714844 184.046875 121.800781 C 188.601562 120.886719 193.332031 121.320312 197.636719 123.046875 C 201.941406 124.773438 205.632812 127.71875 208.242188 131.507812 C 210.847656 135.296875 212.261719 139.757812 212.296875 144.335938 C 212.367188 147.300781 211.847656 150.25 210.761719 153.019531 C 209.675781 155.785156 208.042969 158.316406 205.964844 160.464844 C 203.882812 162.609375 201.398438 164.332031 198.640625 165.535156 C 195.882812 166.734375 192.914062 167.386719 189.902344 167.457031 C 189.523438 167.515625 189.132812 167.515625 188.753906 167.457031 Z M 188.753906 167.691406 " fill-opacity="1" fill-rule="nonzero"/><path fill="#5e60ce" d="M 221.5 264.347656 C 219.980469 264.300781 218.472656 264.550781 217.058594 265.085938 C 215.644531 265.617188 214.351562 266.425781 213.257812 267.457031 C 212.164062 268.492188 211.292969 269.726562 210.6875 271.097656 C 210.089844 272.46875 209.769531 273.9375 209.757812 275.429688 L 209.757812 310.589844 C 209.757812 313.652344 210.992188 316.59375 213.191406 318.761719 C 215.398438 320.929688 218.382812 322.148438 221.5 322.148438 C 224.613281 322.148438 227.601562 320.929688 229.800781 318.761719 C 232 316.59375 233.238281 313.652344 233.238281 310.589844 L 233.238281 275.90625 C 233.289062 274.421875 233.035156 272.941406 232.496094 271.554688 C 231.957031 270.164062 231.140625 268.890625 230.101562 267.816406 C 229.058594 266.742188 227.808594 265.878906 226.429688 265.285156 C 225.039062 264.6875 223.550781 264.371094 222.042969 264.347656 Z M 221.5 264.347656 " fill-opacity="1" fill-rule="nonzero"/><path fill="#5e60ce" d="M 156.128906 264.347656 C 154.589844 264.265625 153.046875 264.492188 151.597656 265.011719 C 150.144531 265.53125 148.816406 266.328125 147.691406 267.363281 C 146.558594 268.398438 145.652344 269.644531 145.019531 271.03125 C 144.390625 272.414062 144.054688 273.914062 144.023438 275.429688 L 144.023438 310.589844 C 144.023438 313.652344 145.257812 316.59375 147.460938 318.761719 C 149.664062 320.929688 152.648438 322.148438 155.765625 322.148438 C 158.878906 322.148438 161.867188 320.929688 164.066406 318.761719 C 166.269531 316.59375 167.507812 313.652344 167.507812 310.589844 L 167.507812 275.90625 C 167.554688 274.421875 167.304688 272.941406 166.761719 271.554688 C 166.226562 270.164062 165.410156 268.890625 164.371094 267.816406 C 163.324219 266.742188 162.078125 265.878906 160.695312 265.285156 C 159.308594 264.6875 157.820312 264.371094 156.3125 264.347656 Z M 156.128906 264.347656 " fill-opacity="1" fill-rule="nonzero"/><g clip-path="url(#b02e210391)"><path fill="#5e60ce" d="M 187.902344 264.347656 C 186.394531 264.3125 184.890625 264.578125 183.484375 265.117188 C 182.074219 265.65625 180.792969 266.464844 179.699219 267.492188 C 178.609375 268.523438 177.734375 269.753906 177.128906 271.117188 C 176.519531 272.476562 176.191406 273.941406 176.164062 275.429688 L 176.164062 323.875 C 176.164062 326.941406 177.398438 329.882812 179.601562 332.050781 C 181.804688 334.21875 184.789062 335.4375 187.902344 335.4375 C 191.019531 335.4375 194.003906 334.21875 196.210938 332.050781 C 198.410156 329.882812 199.644531 326.941406 199.644531 323.875 L 199.644531 276.203125 C 199.699219 274.71875 199.445312 273.242188 198.90625 271.851562 C 198.363281 270.460938 197.550781 269.191406 196.507812 268.117188 C 195.46875 267.039062 194.21875 266.175781 192.832031 265.582031 C 191.449219 264.984375 189.960938 264.667969 188.449219 264.644531 Z M 187.902344 264.347656 " fill-opacity="1" fill-rule="nonzero"/></g></svg>